<svg id="Layer_1" data-name="Layer 1" xmlns="http://www.w3.org/2000/svg" viewBox="0 0 2807 1604"><defs><style>.cls-1{fill:#002a47;}</style></defs><path class="cls-1" d="M1497.48,1160.68h-164a16.75,16.75,0,0,1-16.75-16.75h0a16.75,16.75,0,0,1,16.75-16.75h164a16.75,16.75,0,0,1,16.75,16.75h0A16.75,16.75,0,0,1,1497.48,1160.68Z"/><path class="cls-1" d="M1497.48,1213.29h-164a16.75,16.75,0,0,1-16.75-16.75h0a16.75,16.75,0,0,1,16.75-16.75h164a16.75,16.75,0,0,1,16.75,16.75h0A16.75,16.75,0,0,1,1497.48,1213.29Z"/><path class="cls-1" d="M1375.72,1233.11a6.5,6.5,0,0,0-6.39,7.68,46.5,46.5,0,0,0,91.4,0,6.51,6.51,0,0,0-6.39-7.68Z"/><path class="cls-1" d="M1480.13,1106.07H1348.49a44,44,0,0,1-43.72-40.59c-5.58-74.22-35.86-121.25-67.93-171-35-54.3-71.13-110.44-71.13-201.23,0-122.6,87.69-225.77,208.52-245.32a253.73,253.73,0,0,1,86.1,1c117.39,21.95,202.59,124.69,202.59,244.29,0,90.79-36.16,146.93-71.13,201.23-32.08,49.79-62.36,96.82-67.94,171A44.05,44.05,0,0,1,1480.13,1106.07Zm-65.86-629a218.7,218.7,0,0,0-34.87,2.77c-105.07,17-181.34,106.74-181.34,213.38,0,81.27,32,131,66,183.71,32.84,51,66.8,103.73,73,186.14a11.55,11.55,0,0,0,11.46,10.65h131.64a11.4,11.4,0,0,0,11.45-10.65c6.2-82.41,40.16-135.14,73-186.14,33.94-52.68,66-102.44,66-183.71,0-104-74.1-193.4-176.18-212.48A218.87,218.87,0,0,0,1414.27,477.06Z"/><path class="cls-1" d="M1293.85,849a16.17,16.17,0,0,1-13.09-6.66c-89.81-123.36-23.61-239.15-20.74-244a16.18,16.18,0,0,1,27.91,16.37c-2.48,4.27-58,102.87,19,208.61a16.18,16.18,0,0,1-13.07,25.7Z"/></svg>