<svg id="Layer_1" data-name="Layer 1" xmlns="http://www.w3.org/2000/svg" viewBox="0 0 2807 1604"><defs><style>.cls-1{fill:#ffcb00;}.cls-2{fill:#002a47;}.cls-3{fill:#fff;}</style></defs><path class="cls-1" d="M1415.5,394.3a9.7,9.7,0,0,1-9.7-9.7V336.67a9.71,9.71,0,1,1,19.41,0V384.6A9.7,9.7,0,0,1,1415.5,394.3Z"/><path class="cls-1" d="M1639.2,487a9.71,9.71,0,0,1-6.86-16.57l33.89-33.89A9.71,9.71,0,1,1,1680,450.23l-33.89,33.89A9.7,9.7,0,0,1,1639.2,487Z"/><path class="cls-1" d="M1157.91,968.25a9.71,9.71,0,0,1-6.86-16.57l33.89-33.9a9.71,9.71,0,0,1,13.73,13.73l-33.89,33.89A9.68,9.68,0,0,1,1157.91,968.25Z"/><path class="cls-1" d="M1779.79,710.66h-47.93a9.71,9.71,0,1,1,0-19.41h47.93a9.71,9.71,0,0,1,0,19.41Z"/><path class="cls-1" d="M1099.15,710.66h-47.93a9.71,9.71,0,1,1,0-19.41h47.93a9.71,9.71,0,0,1,0,19.41Z"/><path class="cls-1" d="M1673.09,968.25a9.65,9.65,0,0,1-6.86-2.85l-33.89-33.89a9.71,9.71,0,1,1,13.72-13.73l33.89,33.9a9.71,9.71,0,0,1-6.86,16.57Z"/><path class="cls-1" d="M1191.81,487a9.71,9.71,0,0,1-6.87-2.84l-33.89-33.89a9.71,9.71,0,0,1,13.73-13.73l33.89,33.89a9.71,9.71,0,0,1-6.86,16.57Z"/><path class="cls-1" d="M1537.67,418.85a9.71,9.71,0,0,1-9-13.46l18.51-44.21a9.71,9.71,0,1,1,17.91,7.5l-18.51,44.21A9.71,9.71,0,0,1,1537.67,418.85Z"/><path class="cls-1" d="M1708.24,590.71a9.71,9.71,0,0,1-3.69-18.69l44.36-18.18a9.71,9.71,0,0,1,7.36,18L1711.92,590A9.62,9.62,0,0,1,1708.24,590.71Z"/><path class="cls-1" d="M1078.42,848.78a9.71,9.71,0,0,1-3.68-18.69l44.35-18.17a9.7,9.7,0,0,1,7.36,18l-44.35,18.18A9.72,9.72,0,0,1,1078.42,848.78Z"/><path class="cls-1" d="M1751.52,851.35a9.69,9.69,0,0,1-3.74-.76l-44.21-18.51a9.71,9.71,0,0,1,7.49-17.91l44.21,18.51a9.71,9.71,0,0,1-3.75,18.67Z"/><path class="cls-1" d="M1123.69,588.49a9.69,9.69,0,0,1-3.74-.76l-44.22-18.51a9.71,9.71,0,0,1,7.5-17.91l44.21,18.51a9.71,9.71,0,0,1-3.75,18.67Z"/><path class="cls-1" d="M1295.56,417.93a9.7,9.7,0,0,1-9-6l-18.17-44.35a9.7,9.7,0,1,1,18-7.36l18.18,44.35a9.72,9.72,0,0,1-9,13.39Z"/><path class="cls-2" d="M1500.54,1162.78h-164a16.75,16.75,0,0,1-16.75-16.75h0a16.75,16.75,0,0,1,16.75-16.76h164a16.75,16.75,0,0,1,16.75,16.76h0A16.75,16.75,0,0,1,1500.54,1162.78Z"/><path class="cls-2" d="M1500.54,1215.39h-164a16.75,16.75,0,0,1-16.75-16.75h0a16.75,16.75,0,0,1,16.75-16.75h164a16.75,16.75,0,0,1,16.75,16.75h0A16.75,16.75,0,0,1,1500.54,1215.39Z"/><path class="cls-2" d="M1378.77,1235.2a6.51,6.51,0,0,0-6.39,7.69,46.5,46.5,0,0,0,91.4,0,6.5,6.5,0,0,0-6.39-7.69Z"/><path class="cls-1" d="M1483.19,1108.17H1351.54a44,44,0,0,1-43.72-40.59c-5.57-74.22-35.86-121.25-67.93-171-35-54.3-71.13-110.44-71.13-201.23,0-122.6,87.7-225.77,208.53-245.32a253.43,253.43,0,0,1,86.09,1c117.4,22,202.6,124.69,202.6,244.29,0,90.79-36.17,146.93-71.14,201.23-32.07,49.79-62.36,96.82-67.93,171A44.06,44.06,0,0,1,1483.19,1108.17Z"/><path class="cls-3" d="M1296.91,851.06a16.14,16.14,0,0,1-13.09-6.66c-89.82-123.36-23.61-239.15-20.75-244A16.18,16.18,0,0,1,1291,616.75c-2.47,4.27-58,102.87,19,208.61a16.17,16.17,0,0,1-13.06,25.7Z"/></svg>